<svg width="136" height="56" viewBox="0 0 136 56" fill="none" xmlns="http://www.w3.org/2000/svg">
<path d="M25.5223 30.591H16.3256C15.6234 30.593 14.9369 30.3829 14.3555 29.988C13.7741 29.5931 13.3247 29.0318 13.0658 28.3771L2.55859 2.01174H12.2201C12.7854 2.0097 13.3381 2.17861 13.8062 2.49643C14.2743 2.81424 14.636 3.2662 14.8441 3.79333L25.5223 30.591ZM4.6758 3.45035L14.4018 27.8432C14.5547 28.2305 14.8205 28.5625 15.1644 28.7961C15.5083 29.0296 15.9143 29.1538 16.3296 29.1524H23.4092L13.5132 4.33037C13.4106 4.07095 13.2324 3.84854 13.002 3.69213C12.7715 3.53571 12.4994 3.45254 12.2212 3.45344L4.6758 3.45035Z" fill="#414663" style="fill:#414663;fill:color(display-p3 0.2549 0.2745 0.3882);fill-opacity:1;"/>
<path d="M17.543 29.8721H19.0418H27.5741L38.3905 2.73242H28.3604L18.5166 27.4292L17.543 29.8721Z" fill="#414663" style="fill:#414663;fill:color(display-p3 0.2549 0.2745 0.3882);fill-opacity:1;"/>
<path d="M28.8703 28.8781C28.6553 29.4183 28.2837 29.8814 27.8035 30.2076C27.3234 30.5338 26.7567 30.7081 26.1767 30.7079H16.3667C16.3667 30.7079 15.2938 30.1514 15.6634 30.0138C16.3616 29.753 16.7896 29.3679 17.4612 27.8184L27.1668 3.46459C27.352 3.00025 27.672 2.60238 28.0852 2.32246C28.4985 2.04255 28.986 1.89347 29.4846 1.89454H39.6202L28.8703 28.8781ZM18.7768 29.0342H27.007L37.1569 3.5683H28.9226L18.7768 29.0342Z" fill="#414663" style="fill:#414663;fill:color(display-p3 0.2549 0.2745 0.3882);fill-opacity:1;"/>
<path d="M15.5379 6.59766H5.50781V8.03627H15.5379V6.59766Z" fill="#414663" style="fill:#414663;fill:color(display-p3 0.2549 0.2745 0.3882);fill-opacity:1;"/>
<path d="M17.2968 10.9844H7.26562V12.423H17.2968V10.9844Z" fill="#414663" style="fill:#414663;fill:color(display-p3 0.2549 0.2745 0.3882);fill-opacity:1;"/>
<path d="M19.0585 15.373H9.02734V16.8117H19.0585V15.373Z" fill="#414663" style="fill:#414663;fill:color(display-p3 0.2549 0.2745 0.3882);fill-opacity:1;"/>
<path d="M20.8163 19.7617H10.7852V21.2003H20.8163V19.7617Z" fill="#414663" style="fill:#414663;fill:color(display-p3 0.2549 0.2745 0.3882);fill-opacity:1;"/>
<path d="M22.5731 24.1465H12.543V25.5841H22.5731V24.1465Z" fill="#414663" style="fill:#414663;fill:color(display-p3 0.2549 0.2745 0.3882);fill-opacity:1;"/>
<path d="M21.3443 37.8906C20.0903 37.8906 18.8644 38.2636 17.8218 38.9624C16.7791 39.6611 15.9664 40.6543 15.4865 41.8163C15.0067 42.9783 14.8811 44.257 15.1257 45.4905C15.3704 46.7241 15.9742 47.8572 16.861 48.7466C17.7477 49.636 18.8774 50.2416 20.1073 50.487C21.3372 50.7324 22.6121 50.6064 23.7706 50.1251C24.9292 49.6438 25.9194 48.8287 26.6161 47.7829C27.3128 46.7372 27.6846 45.5077 27.6846 44.2499C27.6827 42.5639 27.0141 40.9475 25.8255 39.7553C24.6368 38.5631 23.0252 37.8925 21.3443 37.8906Z" fill="#E5AB58" style="fill:#E5AB58;fill:color(display-p3 0.8980 0.6706 0.3451);fill-opacity:1;"/>
<path d="M21.3449 34.4414C19.4105 34.4408 17.5195 35.0156 15.9108 36.093C14.3022 37.1704 13.0483 38.7022 12.3077 40.4944C11.5671 42.2867 11.373 44.259 11.7501 46.1619C12.1272 48.0648 13.0584 49.8128 14.4261 51.1848C15.7937 52.5568 17.5363 53.4912 19.4334 53.8698C21.3306 54.2484 23.2971 54.0542 25.0842 53.3117C26.8712 52.5693 28.3987 51.3119 29.4732 49.6987C30.5478 48.0855 31.1213 46.189 31.1211 44.2489C31.1211 41.6481 30.0911 39.1539 28.2578 37.3147C26.4245 35.4755 23.9379 34.442 21.3449 34.4414ZM21.3449 52.0467C19.8072 52.0467 18.304 51.5894 17.0255 50.7326C15.7469 49.8757 14.7504 48.6579 14.162 47.233C13.5735 45.8081 13.4196 44.2402 13.7196 42.7276C14.0195 41.2149 14.76 39.8255 15.8473 38.7349C16.9346 37.6444 18.3199 36.9017 19.8281 36.6008C21.3362 36.2999 22.8995 36.4543 24.3201 37.0445C25.7407 37.6347 26.955 38.6342 27.8093 39.9166C28.6636 41.1989 29.1195 42.7066 29.1195 44.2489C29.1179 46.3165 28.2983 48.299 26.8406 49.761C25.3829 51.223 23.4063 52.0451 21.3449 52.0467Z" fill="#E5AB58" style="fill:#E5AB58;fill:color(display-p3 0.8980 0.6706 0.3451);fill-opacity:1;"/>
<path d="M64.8416 13.9609L57.2226 31.0775H55.8261L48.207 13.9609H53.1591L56.5376 22.2127L59.8906 13.9609H64.8416Z" fill="#414663" style="fill:#414663;fill:color(display-p3 0.2549 0.2745 0.3882);fill-opacity:1;"/>
<path d="M66.5703 13.9609H78.2016V17.9081H70.9388V20.2268H76.1192V23.8947H70.9388V26.8233H78.5067V30.7725H66.5703V13.9609Z" fill="#414663" style="fill:#414663;fill:color(display-p3 0.2549 0.2745 0.3882);fill-opacity:1;"/>
<path d="M85.2398 17.9081H80.2109V13.9609H94.6362V17.9081H89.6073V30.7725H85.2398V17.9081Z" fill="#414663" style="fill:#414663;fill:color(display-p3 0.2549 0.2745 0.3882);fill-opacity:1;"/>
<path d="M48.9688 43.1792C48.9688 39.9118 51.517 37.4062 54.7583 37.4062C56.6656 37.4062 58.2689 38.2698 59.2988 39.692L58.3027 40.4704C57.4765 39.3193 56.2776 38.622 54.7583 38.622C52.1753 38.622 50.3355 40.5864 50.3355 43.1597C50.3355 45.7669 52.2091 47.7651 54.8259 47.7651C56.4967 47.7651 57.7949 46.9344 58.5392 45.7669V44.2605H54.7419V43.0745H59.8558V46.0523C58.877 47.7795 56.9892 48.948 54.7583 48.948C51.4975 48.9532 48.9688 46.4323 48.9688 43.1792Z" fill="#414663" style="fill:#414663;fill:color(display-p3 0.2549 0.2745 0.3882);fill-opacity:1;"/>
<path d="M62.2891 37.5918H69.43V38.7757H63.6057V42.1962H68.0622V43.3812H63.6057V47.58H69.6317V48.7649H62.2891V37.5918Z" fill="#414663" style="fill:#414663;fill:color(display-p3 0.2549 0.2745 0.3882);fill-opacity:1;"/>
<path d="M80.726 37.5931V48.9532H80.254L73.1643 40.3862V48.7663H71.8477V37.4062H72.3196L79.4094 45.9897V37.5931H80.726Z" fill="#414663" style="fill:#414663;fill:color(display-p3 0.2549 0.2745 0.3882);fill-opacity:1;"/>
<path d="M83.0742 43.1792C83.0742 39.9118 85.6398 37.4062 88.8474 37.4062C92.0375 37.4062 94.6369 39.9118 94.6369 43.1792C94.6369 46.4466 92.0375 48.9532 88.8474 48.9532C85.6224 48.9532 83.0742 46.4323 83.0742 43.1792ZM93.2692 43.1628C93.2692 40.5895 91.3792 38.6251 88.8668 38.6251C86.3176 38.6251 84.4441 40.5761 84.4441 43.1628C84.4441 45.7699 86.3176 47.7333 88.8668 47.7333C91.3792 47.7333 93.2681 45.7699 93.2681 43.1628H93.2692Z" fill="#414663" style="fill:#414663;fill:color(display-p3 0.2549 0.2745 0.3882);fill-opacity:1;"/>
<path d="M107.231 37.4062V48.7663H105.914V40.7569L102.352 45.5985H101.879L98.2959 40.723V48.7642H96.9844V37.4062H97.4563L102.098 43.8569L106.78 37.4062H107.231Z" fill="#414663" style="fill:#414663;fill:color(display-p3 0.2549 0.2745 0.3882);fill-opacity:1;"/>
<path d="M110.309 37.5918H111.625V48.7649H110.309V37.5918Z" fill="#414663" style="fill:#414663;fill:color(display-p3 0.2549 0.2745 0.3882);fill-opacity:1;"/>
<path d="M113.953 43.1792C113.953 39.9118 116.519 37.4062 119.743 37.4062C121.769 37.4062 123.44 38.3879 124.368 39.8101L123.389 40.5895C122.562 39.3696 121.313 38.6251 119.76 38.6251C117.245 38.6251 115.32 40.5761 115.32 43.1792C115.32 45.7823 117.245 47.7333 119.76 47.7333C121.313 47.7333 122.562 46.9888 123.389 45.77L124.368 46.5493C123.473 47.9705 121.769 48.9532 119.743 48.9532C116.519 48.9532 113.953 46.4477 113.953 43.1792Z" fill="#414663" style="fill:#414663;fill:color(display-p3 0.2549 0.2745 0.3882);fill-opacity:1;"/>
<path d="M125.91 46.5494L126.889 45.8214C127.565 46.8482 128.56 47.7334 129.995 47.7334C131.312 47.7334 132.24 47.0053 132.24 45.8717C132.24 44.8387 131.481 44.4341 130.383 43.9084L129.134 43.3159C127.969 42.7562 126.619 41.981 126.619 40.3185C126.619 38.541 128.172 37.4063 129.978 37.4063C130.672 37.4016 131.357 37.5728 131.967 37.9042C132.578 38.2356 133.096 38.7164 133.472 39.3019L132.51 40.03C131.902 39.1335 130.974 38.6252 129.961 38.6252C128.931 38.6252 127.986 39.1499 127.986 40.2497C127.986 41.2663 128.762 41.639 129.775 42.1299L131.004 42.7224C132.624 43.5007 133.603 44.314 133.603 45.8378C133.603 47.7169 132.067 48.9533 130.007 48.9533C128.239 48.9533 126.77 48.0219 125.91 46.5494Z" fill="#414663" style="fill:#414663;fill:color(display-p3 0.2549 0.2745 0.3882);fill-opacity:1;"/>
</svg>
