<svg width="70" height="36" viewBox="0 0 70 36" fill="none" xmlns="http://www.w3.org/2000/svg">
<path d="M7.1783 8.31854C7.1783 8.56076 7.12906 8.75454 7.03057 8.94832C6.93209 9.1421 6.83361 9.23899 6.68588 9.38433C6.53816 9.48122 6.39044 9.57811 6.24271 9.675C6.09499 9.72344 5.89802 9.77189 5.70106 9.77189V10.2079H4.86396V9.77189C4.61775 9.72344 4.37154 9.675 4.17458 9.57811C3.97761 9.48122 3.82989 9.38433 3.73141 9.23899C3.63293 9.09366 3.53444 8.94832 3.4852 8.75454C3.43596 8.56076 3.38672 8.36698 3.38672 8.12476V6.33229C3.38672 6.09007 3.43596 5.89629 3.53444 5.70251C3.58368 5.55717 3.73141 5.41184 3.82989 5.31495C3.97761 5.16961 4.12534 5.12117 4.3223 5.02428C4.51927 4.92739 4.66699 4.92739 4.86396 4.92739V4.63672H5.7503V4.92739C5.94727 4.92739 6.09499 4.97583 6.29195 5.02428C6.43968 5.07272 6.5874 5.16961 6.73513 5.31495C6.88285 5.41184 6.98133 5.60562 7.07981 5.75095C7.1783 5.94473 7.22754 6.13851 7.22754 6.38074V8.31854H7.1783ZM4.86396 5.60562C4.66699 5.65406 4.51927 5.70251 4.37154 5.7994C4.27306 5.94473 4.22382 6.09007 4.22382 6.28385V8.41543C4.22382 8.51232 4.22382 8.60921 4.27306 8.7061C4.3223 8.80299 4.37154 8.85143 4.42079 8.89988C4.47003 8.94832 4.56851 8.99677 4.61775 9.04521C4.71623 9.09366 4.76547 9.09366 4.86396 9.09366V5.60562ZM6.39044 6.28385C6.39044 6.09007 6.3412 5.94473 6.19347 5.7994C6.09499 5.70251 5.94727 5.65406 5.7503 5.60562V9.04521C5.79954 9.04521 5.89802 8.99677 5.94727 8.99677C6.04575 8.94832 6.09499 8.89988 6.14423 8.85143C6.19347 8.80299 6.24271 8.75454 6.29195 8.65765C6.3412 8.56076 6.3412 8.51232 6.3412 8.41543V6.28385H6.39044Z" fill="#42454A" style="fill:#42454A;fill:color(display-p3 0.2588 0.2706 0.2902);fill-opacity:1;"/>
<path d="M11.5622 8.75454C11.5622 9.23899 11.4637 9.62655 11.2175 9.86878C10.9713 10.111 10.6266 10.2563 10.1834 10.2563C9.69103 10.2563 9.34634 10.1594 9.14938 9.91722C8.95241 9.675 8.80469 9.33588 8.80469 8.89988V6.09007C8.80469 5.89629 8.85393 5.65406 8.90317 5.50873C8.95241 5.31495 9.05089 5.16961 9.14938 5.02428C9.24786 4.87894 9.39558 4.78205 9.59255 4.73361C9.78951 4.68516 9.98648 4.63672 10.2327 4.63672C10.4789 4.63672 10.7251 4.68516 10.8728 4.73361C11.0205 4.73361 11.1683 4.8305 11.2668 4.97583C11.3652 5.12117 11.4637 5.2665 11.513 5.46028C11.5622 5.65406 11.5622 5.84784 11.5622 6.09007V8.75454ZM10.6759 5.99318C10.6759 5.84784 10.6266 5.70251 10.5774 5.55717C10.5281 5.41184 10.3804 5.36339 10.1834 5.36339C10.085 5.36339 9.98648 5.36339 9.93724 5.41184C9.83875 5.50873 9.78951 5.55717 9.78951 5.65406C9.74027 5.70251 9.74027 5.7994 9.74027 5.89629C9.74027 5.99318 9.74027 6.04162 9.74027 6.13851V8.94832C9.74027 9.09366 9.78951 9.23899 9.83875 9.33588C9.888 9.43277 10.0357 9.52966 10.2327 9.52966C10.4296 9.52966 10.5281 9.48122 10.6266 9.33588C10.7251 9.23899 10.7251 9.09366 10.7251 8.89988V5.99318H10.6759Z" fill="#42454A" style="fill:#42454A;fill:color(display-p3 0.2588 0.2706 0.2902);fill-opacity:1;"/>
<path d="M15.1055 10.2079V7.78564H14.0715V10.2079H13.2344V4.63672H14.1207V6.96208H15.1548V4.63672H16.0411V10.2079H15.1055Z" fill="#42454A" style="fill:#42454A;fill:color(display-p3 0.2588 0.2706 0.2902);fill-opacity:1;"/>
<path d="M18.1097 10.2063V11.2721H17.3711V9.47965L17.7158 9.4312C17.8635 9.28587 17.962 9.09209 18.0112 8.89831C18.0605 8.70453 18.1097 8.41386 18.1097 8.07474L18.2082 4.68359H20.7687V9.47965H21.1134V11.3206H20.3748V10.2548H18.1097V10.2063ZM18.8976 8.0263C18.8976 8.36541 18.8483 8.60764 18.8483 8.84986C18.7991 9.09209 18.7498 9.28587 18.6514 9.4312H19.8824V5.45871H18.9961L18.8976 8.0263Z" fill="#42454A" style="fill:#42454A;fill:color(display-p3 0.2588 0.2706 0.2902);fill-opacity:1;"/>
<path d="M26.4326 4.58594C26.6788 4.58594 26.8758 4.63438 27.0235 4.68283C27.1712 4.73127 27.319 4.82816 27.4667 4.92505C27.5652 5.02194 27.6636 5.16728 27.7129 5.31261C27.7621 5.45795 27.8114 5.65173 27.8114 5.84551L26.9743 6.03929C26.9743 5.84551 26.925 5.65173 26.8758 5.55484C26.7773 5.4095 26.6788 5.36106 26.4819 5.36106C26.3834 5.36106 26.2849 5.36106 26.2357 5.4095C26.1864 5.45795 26.1372 5.50639 26.0879 5.55484C26.0387 5.60328 26.0387 5.70017 26.0387 5.74862C26.0387 5.84551 26.0387 5.89395 26.0387 5.99084V8.80065C26.0387 8.8491 26.0387 8.89754 26.0387 8.99443C26.0387 9.04288 26.0879 9.13977 26.0879 9.18821C26.1372 9.23666 26.1864 9.2851 26.2357 9.33355C26.2849 9.38199 26.3834 9.38199 26.4819 9.38199C26.8265 9.38199 26.9743 9.13977 26.9743 8.70376C27.122 8.75221 27.2697 8.75221 27.4174 8.75221C27.5652 8.75221 27.7129 8.80065 27.8606 8.80065C27.8606 9.23666 27.7129 9.57577 27.5159 9.818C27.2697 10.0602 26.9743 10.2056 26.5311 10.2056C26.0387 10.2056 25.694 10.1087 25.497 9.86644C25.2508 9.62422 25.1523 9.2851 25.1523 8.8491V6.08773C25.1523 5.89395 25.1523 5.70017 25.2016 5.50639C25.2508 5.31261 25.3493 5.16728 25.4478 5.02194C25.5463 4.87661 25.694 4.77972 25.891 4.68283C25.9402 4.63438 26.1372 4.58594 26.4326 4.58594Z" fill="#42454A" style="fill:#42454A;fill:color(display-p3 0.2588 0.2706 0.2902);fill-opacity:1;"/>
<path d="M31.945 8.75454C31.945 9.23899 31.8465 9.62655 31.6003 9.86878C31.3541 10.111 31.0094 10.2563 30.5663 10.2563C30.0738 10.2563 29.7292 10.1594 29.5322 9.91722C29.3352 9.675 29.1875 9.33588 29.1875 8.89988V6.09007C29.1875 5.89629 29.2367 5.65406 29.286 5.50873C29.3352 5.31495 29.4337 5.16961 29.5322 5.02428C29.6307 4.87894 29.7784 4.78205 29.9754 4.73361C30.1723 4.68516 30.3693 4.63672 30.6155 4.63672C30.8617 4.63672 31.1079 4.68516 31.2556 4.73361C31.4526 4.78205 31.5511 4.87894 31.6988 5.02428C31.7973 5.16961 31.8958 5.31495 31.945 5.50873C31.945 5.60562 31.945 5.84784 31.945 6.04162V8.75454ZM31.0587 5.99318C31.0587 5.84784 31.0094 5.70251 30.9602 5.55717C30.9109 5.41184 30.7632 5.36339 30.5663 5.36339C30.4678 5.36339 30.3693 5.36339 30.32 5.41184C30.2708 5.46028 30.2216 5.50873 30.1723 5.55717C30.1231 5.60562 30.1231 5.70251 30.0738 5.7994C30.0738 5.89629 30.0738 5.94473 30.0738 6.04162V8.85143C30.0738 8.99677 30.1231 9.1421 30.1723 9.23899C30.2708 9.33588 30.3693 9.43277 30.5663 9.43277C30.7632 9.43277 30.8617 9.38433 30.9602 9.23899C31.0587 9.1421 31.0587 8.99677 31.0587 8.80299V5.99318Z" fill="#42454A" style="fill:#42454A;fill:color(display-p3 0.2588 0.2706 0.2902);fill-opacity:1;"/>
<path d="M34.016 10.2063V11.2721H33.2773V9.47965L33.622 9.4312C33.7698 9.28587 33.8682 9.09209 33.9175 8.89831C33.9667 8.70453 34.016 8.41386 34.016 8.07474L34.1144 4.68359H36.675V9.47965H37.0197V11.3206H36.2811V10.2548H34.016V10.2063ZM34.8038 8.0263C34.8038 8.36541 34.7546 8.60764 34.7546 8.84986C34.7053 9.09209 34.6561 9.28587 34.5576 9.4312H35.7887V5.45871H34.9023L34.8038 8.0263Z" fill="#42454A" style="fill:#42454A;fill:color(display-p3 0.2588 0.2706 0.2902);fill-opacity:1;"/>
<path d="M38.4453 10.2079V4.63672H40.9566V5.46028H39.3317V6.96208H40.7597V7.78564H39.3317V9.38433H40.9566V10.2079H38.4453Z" fill="#42454A" style="fill:#42454A;fill:color(display-p3 0.2588 0.2706 0.2902);fill-opacity:1;"/>
<path d="M44.4525 6.7177L43.2707 10.2057H42.4336V4.63457H43.2707V8.17105L44.4525 4.63457H45.2896V10.2057H44.4032L44.4525 6.7177ZM43.3692 3.375C43.3692 3.42344 43.3692 3.47189 43.4184 3.56878C43.4677 3.61722 43.4677 3.66567 43.5169 3.76256C43.5661 3.811 43.6154 3.85945 43.6646 3.90789C43.7139 3.95634 43.8123 3.95634 43.8616 3.95634C43.9601 3.95634 44.0093 3.95634 44.0586 3.90789C44.1078 3.85945 44.157 3.811 44.2063 3.76256C44.2555 3.71411 44.3048 3.66567 44.3048 3.56878C44.3048 3.52033 44.354 3.47189 44.354 3.375H44.9941C44.9941 3.47189 44.9449 3.61722 44.8957 3.76256C44.9449 3.85945 44.8464 4.00478 44.7479 4.10167C44.6495 4.19856 44.551 4.29545 44.4032 4.39234C44.2555 4.44079 44.1078 4.48923 43.9108 4.48923C43.7139 4.48923 43.5169 4.44079 43.3692 4.39234C43.2215 4.3439 43.123 4.24701 43.0245 4.10167C42.926 4.00478 42.8768 3.85945 42.8275 3.76256C42.7783 3.61722 42.729 3.47189 42.729 3.375H43.3692Z" fill="#42454A" style="fill:#42454A;fill:color(display-p3 0.2588 0.2706 0.2902);fill-opacity:1;"/>
<path d="M48.3428 4.58594C48.589 4.58594 48.7859 4.63438 48.9337 4.68283C49.0814 4.73127 49.2291 4.82816 49.3768 4.92505C49.4753 5.02194 49.5738 5.16728 49.623 5.31261C49.6723 5.45795 49.7215 5.65173 49.7215 5.84551L48.8844 6.03929C48.8844 5.84551 48.8352 5.65173 48.7859 5.55484C48.6875 5.4095 48.589 5.36106 48.392 5.36106C48.2935 5.36106 48.1951 5.36106 48.1458 5.4095C48.0966 5.45795 48.0473 5.50639 47.9981 5.55484C47.9488 5.60328 47.9488 5.70017 47.9488 5.74862C47.9488 5.84551 47.9488 5.89395 47.9488 5.99084V8.80065C47.9488 8.8491 47.9488 8.89754 47.9488 8.99443C47.9488 9.04288 47.9981 9.13977 47.9981 9.18821C48.0473 9.23666 48.0966 9.2851 48.1458 9.33355C48.1951 9.38199 48.2935 9.38199 48.392 9.38199C48.7367 9.38199 48.8844 9.13977 48.8844 8.70376C49.0322 8.75221 49.1799 8.75221 49.3276 8.75221C49.4753 8.75221 49.623 8.80065 49.7708 8.80065C49.7708 9.23666 49.623 9.57577 49.4261 9.818C49.1799 10.0602 48.8844 10.2056 48.4413 10.2056C47.9488 10.2056 47.6042 10.1087 47.4072 9.86644C47.161 9.62422 47.0625 9.2851 47.0625 8.8491V6.08773C47.0625 5.89395 47.0625 5.70017 47.1117 5.50639C47.161 5.31261 47.2595 5.16728 47.358 5.02194C47.4564 4.87661 47.6042 4.77972 47.8011 4.68283C47.8504 4.63438 48.0966 4.58594 48.3428 4.58594Z" fill="#42454A" style="fill:#42454A;fill:color(display-p3 0.2588 0.2706 0.2902);fill-opacity:1;"/>
<path d="M52.5797 5.46028V10.2079H51.6934V5.46028H50.7578V4.63672H53.4661V5.46028H52.5797Z" fill="#42454A" style="fill:#42454A;fill:color(display-p3 0.2588 0.2706 0.2902);fill-opacity:1;"/>
<path d="M56.9142 7.30119C57.1605 7.39808 57.3574 7.54342 57.4067 7.7372C57.5051 7.97942 57.5544 8.22165 57.5544 8.51232C57.5544 9.09366 57.4067 9.52966 57.1605 9.77189C56.9142 10.0626 56.5203 10.1594 55.9787 10.1594H54.7969V4.63672H56.0279C56.5203 4.63672 56.9142 4.78205 57.1112 5.02428C57.3574 5.2665 57.4559 5.65406 57.4559 6.13851C57.4559 6.38074 57.4067 6.62296 57.3082 6.81674C57.3082 7.01052 57.1112 7.15586 56.9142 7.30119ZM56.668 6.18696C56.668 5.94473 56.6188 5.75095 56.5203 5.65406C56.4218 5.55717 56.2249 5.50873 56.0279 5.50873H55.7325V6.96208H56.0279C56.2741 6.96208 56.4218 6.91363 56.5203 6.7683C56.6188 6.57452 56.668 6.38074 56.668 6.18696ZM56.7173 8.41543C56.7173 8.1732 56.668 7.97942 56.5696 7.83409C56.4711 7.68875 56.3234 7.64031 56.0771 7.64031H55.7325V9.38433H56.0771C56.2249 9.38433 56.3234 9.33588 56.4218 9.28744C56.5203 9.23899 56.5696 9.19055 56.6188 9.09366C56.668 8.99677 56.7173 8.89988 56.7173 8.80299C56.7173 8.7061 56.7173 8.56076 56.7173 8.41543Z" fill="#42454A" style="fill:#42454A;fill:color(display-p3 0.2588 0.2706 0.2902);fill-opacity:1;"/>
<path d="M61.2455 6.71985L60.0637 10.2079H59.2266V4.63672H60.0637V8.1732H60.1129L61.2947 4.63672H62.1318V10.2079H61.2455V6.71985Z" fill="#42454A" style="fill:#42454A;fill:color(display-p3 0.2588 0.2706 0.2902);fill-opacity:1;"/>
<path d="M63.6094 10.2063L63.9048 8.4623C63.9541 8.26852 64.0033 8.12319 64.1018 7.97785C64.2003 7.83252 64.2988 7.68718 64.4465 7.63874C64.2003 7.54185 64.0033 7.34807 63.9048 7.15429C63.8063 6.96051 63.7571 6.66984 63.7571 6.37917C63.7571 5.84627 63.9048 5.41027 64.151 5.1196C64.3972 4.82893 64.7912 4.68359 65.2836 4.68359H66.5639V10.2548H65.6775V7.83252H65.4313C65.2836 7.83252 65.1359 7.88096 64.9881 8.0263C64.8404 8.12319 64.7912 8.36541 64.6927 8.65608L64.4465 10.2063H63.6094ZM65.3328 5.45871C65.0866 5.45871 64.8896 5.5556 64.7912 5.70094C64.6927 5.84627 64.6434 6.04005 64.6434 6.33072C64.6434 6.62139 64.6927 6.76673 64.8404 6.91206C64.9881 7.00895 65.1359 7.0574 65.3328 7.0574H65.6775V5.45871H65.3328Z" fill="#42454A" style="fill:#42454A;fill:color(display-p3 0.2588 0.2706 0.2902);fill-opacity:1;"/>
<path d="M6.04646 14.8059L4.56922 19.1175H3.53516V12.2383H4.61846V16.5983H4.66771L6.14494 12.2383H7.22825V19.1175H6.0957L6.04646 14.8059Z" fill="#42454A" style="fill:#42454A;fill:color(display-p3 0.2588 0.2706 0.2902);fill-opacity:1;"/>
<path d="M12.494 19.1175V16.1139H11.263V19.1175H10.1797V12.2383H11.263V15.0965H12.5433V12.2383H13.6266V19.1175H12.494Z" fill="#42454A" style="fill:#42454A;fill:color(display-p3 0.2588 0.2706 0.2902);fill-opacity:1;"/>
<path d="M18.9964 19.1175V16.1139H17.7161V19.1175H16.6328V12.2383H17.7161V15.0965H18.9964V12.2383H20.0797V19.1175H18.9964Z" fill="#42454A" style="fill:#42454A;fill:color(display-p3 0.2588 0.2706 0.2902);fill-opacity:1;"/>
<path d="M26.4797 17.375C26.4797 17.9564 26.332 18.4408 26.0857 18.7315C25.7903 19.0221 25.3964 19.1675 24.7562 19.1675C24.1653 19.1675 23.7222 19.0221 23.476 18.7315C23.2298 18.4408 23.082 18.0048 23.082 17.4719V14.0323C23.082 13.7416 23.1313 13.4994 23.1805 13.3056C23.2298 13.0634 23.3282 12.8696 23.476 12.7243C23.6237 12.579 23.7714 12.4336 24.0176 12.3367C24.2146 12.2399 24.51 12.1914 24.8055 12.1914C25.1502 12.1914 25.3964 12.2399 25.6426 12.3367C25.8395 12.4336 26.0365 12.5305 26.1842 12.6759C26.332 12.8212 26.4304 13.015 26.4797 13.2572C26.5289 13.4994 26.5782 13.7416 26.5782 14.0323V17.375H26.4797ZM25.3964 13.9354C25.3964 13.7416 25.3471 13.5963 25.2486 13.4025C25.1502 13.2572 25.0024 13.1603 24.7562 13.1603C24.6085 13.1603 24.51 13.2088 24.4608 13.2572C24.3623 13.3056 24.3131 13.4025 24.2638 13.451C24.2146 13.5479 24.1653 13.6448 24.1653 13.7416C24.1653 13.8385 24.1161 13.9354 24.1161 14.0323V17.5204C24.1161 17.7141 24.1653 17.8595 24.2638 18.0048C24.3623 18.1501 24.51 18.1986 24.7562 18.1986C25.0024 18.1986 25.1502 18.1017 25.2486 17.9564C25.3471 17.811 25.3964 17.6172 25.3964 17.4235V13.9354Z" fill="#42454A" style="fill:#42454A;fill:color(display-p3 0.2588 0.2706 0.2902);fill-opacity:1;"/>
<path d="M32.0449 15.5325C32.3404 15.6294 32.5866 15.8232 32.6851 16.1139C32.7835 16.4045 32.882 16.6952 32.882 17.0828C32.882 17.8095 32.7343 18.3423 32.3896 18.6815C32.0942 19.0206 31.6018 19.1659 30.9616 19.1659H29.4844V12.2383H31.0109C31.651 12.2383 32.0942 12.3836 32.3404 12.7227C32.6358 13.0618 32.7835 13.4979 32.7835 14.1276C32.7835 14.4668 32.7343 14.709 32.6358 14.9512C32.5373 15.1934 32.3404 15.3872 32.0449 15.4841V15.5325ZM31.7495 14.1276C31.7495 13.7885 31.7002 13.5947 31.5525 13.4494C31.4048 13.3041 31.2078 13.2556 30.9124 13.2556H30.5677V14.9996H30.9124C31.2078 14.9996 31.4048 14.9028 31.5525 14.7574C31.7002 14.6605 31.7495 14.4183 31.7495 14.1276ZM31.7987 16.9374C31.7987 16.5983 31.7495 16.3561 31.6017 16.2108C31.5033 16.0654 31.2571 15.9685 30.9616 15.9685H30.5677V18.1001H31.0109C31.2078 18.1001 31.3063 18.0517 31.454 18.0032C31.5525 17.9548 31.651 17.8579 31.7002 17.761C31.7495 17.6641 31.7987 17.5188 31.7987 17.3734C31.7987 17.2766 31.7987 17.1312 31.7987 16.9374Z" fill="#42454A" style="fill:#42454A;fill:color(display-p3 0.2588 0.2706 0.2902);fill-opacity:1;"/>
<path d="M38.3982 19.1175L38.1028 17.6641H36.8225C36.7733 17.9063 36.724 18.1486 36.6748 18.3908C36.6256 18.633 36.5763 18.8752 36.5271 19.1175H35.3945C35.6407 17.9548 35.8869 16.7921 36.0839 15.6779C36.3301 14.5152 36.5763 13.401 36.7733 12.2383H38.0043L39.4323 19.1175H38.3982ZM37.4134 13.837C37.3642 14.3214 37.2657 14.8059 37.2165 15.2419C37.118 15.7263 37.0687 16.2108 36.9703 16.6952H37.9551L37.5119 13.837H37.4134Z" fill="#42454A" style="fill:#42454A;fill:color(display-p3 0.2588 0.2706 0.2902);fill-opacity:1;"/>
<path d="M45.5367 12.2383V18.1486H45.9799V20.4739H45.0443V19.1659H42.0898V12.2383H43.1732V18.1486H44.4042V12.2383H45.5367Z" fill="#42454A" style="fill:#42454A;fill:color(display-p3 0.2588 0.2706 0.2902);fill-opacity:1;"/>
<path d="M51.1011 14.8059L49.6239 19.1175H48.5898V12.2383H49.6732V16.5983L51.1504 12.2383H52.2337V19.1175H51.1504L51.1011 14.8059Z" fill="#42454A" style="fill:#42454A;fill:color(display-p3 0.2588 0.2706 0.2902);fill-opacity:1;"/>
<path d="M54.9414 19.1175L55.3353 16.9374C55.3846 16.6952 55.4338 16.5014 55.5815 16.3077C55.68 16.1139 55.8278 15.9685 56.0247 15.8717C55.68 15.7263 55.4831 15.5325 55.3353 15.2903C55.2369 14.9996 55.1384 14.709 55.1384 14.3214C55.1384 13.6432 55.2861 13.1103 55.6308 12.7712C55.9755 12.4321 56.4186 12.2383 57.0095 12.2383H58.6345V19.1175H57.5512V16.1623H57.2557C57.0588 16.1623 56.9111 16.2108 56.7141 16.3561C56.5664 16.5014 56.4186 16.7437 56.3694 17.1312L56.0247 19.069H54.9414V19.1175ZM57.108 13.2556C56.7633 13.2556 56.5664 13.3525 56.4186 13.5463C56.2709 13.7401 56.2217 13.9823 56.2217 14.3214C56.2217 14.6605 56.3202 14.9028 56.4679 14.9996C56.6156 15.145 56.8618 15.1934 57.108 15.1934H57.5512V13.2556H57.108Z" fill="#42454A" style="fill:#42454A;fill:color(display-p3 0.2588 0.2706 0.2902);fill-opacity:1;"/>
<path d="M63.7088 17.6172L63.2163 16.3577L62.7732 15.1465H62.7239V19.119H61.6406V12.2399H62.7239L63.5118 14.1776L64.0534 15.6794H64.1027L64.6936 14.1292L65.4322 12.1914H66.4663V19.0706H65.383V15.0981H65.3337L64.8905 16.3092L64.3981 17.5688H63.7088V17.6172Z" fill="#42454A" style="fill:#42454A;fill:color(display-p3 0.2588 0.2706 0.2902);fill-opacity:1;"/>
<path d="M66.5148 21.2031C51.2992 35.8335 20.8681 33.3144 9.83804 21.2031H3.53516C11.8569 29.8748 23.8226 33.169 33.8678 33.605C34.9019 33.6535 35.9359 33.6535 36.9207 33.6535C43.4206 33.5566 50.6591 32.1517 56.962 28.8574C60.5566 27.0165 63.8557 24.4974 66.5148 21.2031Z" fill="#EA2227" style="fill:#EA2227;fill:color(display-p3 0.9176 0.1333 0.1529);fill-opacity:1;"/>
<path d="M66.5166 21.2031C66.5166 21.2516 66.5166 21.2516 66.5166 21.2031C66.2704 21.3969 66.0242 21.5422 65.8272 21.6876C49.2329 32.5877 26.188 30.4561 16.2905 21.2031H9.83984C20.8699 33.3144 51.301 35.882 66.5166 21.2031Z" fill="#25A8E0" style="fill:#25A8E0;fill:color(display-p3 0.1451 0.6588 0.8784);fill-opacity:1;"/>
<path d="M62.8713 22.7534C55.3374 25.6116 48.2467 26.8712 42.0423 26.9196C33.3758 26.9681 26.5312 24.6912 22.8874 21.2031H17.4216H16.2891C26.1373 30.3592 48.936 32.5392 65.4811 21.8814C65.5796 21.8329 65.7273 21.736 65.8258 21.6391C66.072 21.4938 66.269 21.3485 66.5152 21.2031C65.2841 21.7845 64.0531 22.2689 62.8713 22.7534Z" fill="white" style="fill:white;fill-opacity:1;"/>
<path d="M22.8878 21.2024C26.4824 24.5935 33.1792 26.8704 41.698 26.8704C41.7965 26.8704 41.9442 26.8704 42.0427 26.8704C48.2471 26.822 55.3378 25.5624 62.8717 22.7042C64.0535 22.2197 65.2845 21.7353 66.5156 21.2024C63.8566 24.4482 60.5574 26.9673 56.9135 28.8567C50.6106 32.1509 43.3722 33.5558 36.8723 33.6527C36.6261 33.6527 36.3799 33.6527 36.1337 33.6527C35.3951 33.6527 34.6072 33.6527 33.8194 33.6043C23.7742 33.1683 11.8578 29.874 3.48674 21.2024H9.74038H16.191H17.3235H22.8878ZM22.8878 21.1539H17.422H16.2895H9.83887H3.53598C3.48674 21.1539 3.48674 21.1539 3.4375 21.2024C3.4375 21.2508 3.4375 21.2508 3.4375 21.2992C7.3768 25.3202 12.2517 28.4691 18.0129 30.6007C22.8386 32.3931 28.3536 33.4589 33.8194 33.7012C34.6072 33.7496 35.3459 33.7496 36.1337 33.7496C36.3799 33.7496 36.6261 33.7496 36.8723 33.7496C40.3192 33.7012 43.7169 33.3136 46.9668 32.5385C50.5614 31.7149 53.9098 30.5038 56.9135 28.9536C60.7544 26.9189 64.0043 24.3513 66.5156 21.2508C66.5156 21.2508 66.5156 21.2508 66.5156 21.2024C66.5156 21.2024 66.5156 21.2024 66.5156 21.1539C66.5156 21.1539 66.5156 21.1539 66.5156 21.1055C66.5156 21.1055 66.5156 21.1055 66.4663 21.1055H66.4171C65.2353 21.6384 64.0043 22.1713 62.7732 22.6073C55.781 25.2717 48.5918 26.7251 41.9934 26.7735C41.8949 26.7735 41.7472 26.7735 41.6487 26.7735C33.5239 26.7735 26.7286 24.6904 22.937 21.1055C22.937 21.1539 22.937 21.1539 22.8878 21.1539Z" fill="#CDCCCB" style="fill:#CDCCCB;fill:color(display-p3 0.8039 0.8000 0.7961);fill-opacity:1;"/>
</svg>
