<svg width="28" height="28" viewBox="0 0 28 28" fill="none" xmlns="http://www.w3.org/2000/svg">
<path d="M14.77 19.2901C9.30003 19.2901 6.18006 15.54 6.05005 9.30005H8.79006C8.88006 13.88 10.9 15.82 12.5 16.22V9.30005H15.0801V13.25C16.6601 13.08 18.3199 11.28 18.8799 9.30005H21.46C21.03 11.7401 19.23 13.54 17.95 14.28C19.23 14.88 21.2801 16.45 22.0601 19.2901H19.22C18.61 17.39 17.0901 15.92 15.0801 15.72V19.2901H14.77Z" fill="#414663" fill-opacity="0.8" style="fill:#414663;fill:color(display-p3 0.2549 0.2745 0.3882);fill-opacity:0.8;"/>
<path d="M25.1 14C25.1 20.1304 20.1304 25.1 14 25.1C7.86964 25.1 2.9 20.1304 2.9 14C2.9 7.86964 7.86964 2.9 14 2.9C20.1304 2.9 25.1 7.86964 25.1 14Z" stroke="#414663" stroke-opacity="0.8" style="stroke:#414663;stroke:color(display-p3 0.2549 0.2745 0.3882);stroke-opacity:0.8;" stroke-width="1.8"/>
</svg>
