<svg width="20" height="20" viewBox="0 0 20 20" xmlns="http://www.w3.org/2000/svg">
<path fill-rule="evenodd" clip-rule="evenodd" d="M6.70118 4.10355C7.29473 3.07581 8.35089 2.39453 10.0008 2.39453C11.6507 2.39453 12.7069 3.07581 13.3004 4.10355C13.7219 4.83326 13.8798 5.68723 13.9313 6.46112C14.1275 6.46301 14.3043 6.46776 14.4615 6.47966C14.7382 6.5006 15.0048 6.54623 15.2665 6.66364C15.667 6.8433 16.0084 7.1326 16.2513 7.49797C16.4102 7.73681 16.499 7.99235 16.5652 8.26186C16.6279 8.51736 16.6799 8.82953 16.7409 9.19521L16.7428 9.20669L17.4976 12.9267C17.5001 12.9383 17.5024 12.95 17.5044 12.9618L17.5093 12.9917C17.5918 13.4864 17.6611 13.9019 17.688 14.2432C17.716 14.598 17.7061 14.9468 17.5795 15.2875C17.3902 15.7972 17.0284 16.2245 16.5565 16.4952C16.2411 16.6762 15.8982 16.7433 15.5433 16.774C15.2016 16.8036 14.7798 16.8036 14.2773 16.8036H5.72409C5.22163 16.8036 4.79997 16.8036 4.45852 16.774C4.10363 16.7433 3.76111 16.6761 3.44575 16.4952C2.9744 16.2248 2.61167 15.7978 2.42213 15.2875C2.29557 14.9467 2.28566 14.5978 2.31366 14.2429C2.34061 13.9013 2.40991 13.4856 2.49244 12.9905L2.499 12.9511L2.49937 12.9495L2.50219 12.9348L3.25861 9.20669L3.25976 9.19979C3.32105 8.83198 3.37333 8.51828 3.43644 8.26162C3.50273 7.99203 3.59171 7.73665 3.75043 7.49797C3.99329 7.13276 4.3344 6.84337 4.73506 6.66364C4.9968 6.54622 5.26349 6.50059 5.54019 6.47966C5.69743 6.46777 5.87415 6.46301 6.07034 6.46112C6.12177 5.68723 6.27976 4.83326 6.70118 4.10355ZM7.47439 6.45986H12.5272C12.478 5.84045 12.3514 5.25965 12.0881 4.80371C11.7671 4.24783 11.1971 3.79453 10.0008 3.79453C8.80453 3.79453 8.23456 4.24783 7.91353 4.80371C7.65021 5.25965 7.5236 5.84045 7.47439 6.45986ZM5.64579 7.87567C5.45167 7.89036 5.3639 7.91596 5.30809 7.94099C5.14892 8.0124 5.0131 8.12748 4.9162 8.2732C4.88219 8.32433 4.84242 8.40689 4.79595 8.59589C4.74738 8.79342 4.70361 9.05257 4.63755 9.44894C4.6362 9.457 4.63472 9.46504 4.63309 9.47305L3.87654 13.2018C3.78875 13.7286 3.73078 14.081 3.70933 14.353C3.68823 14.6203 3.71031 14.7348 3.73453 14.8C3.80975 15.0025 3.95406 15.1728 4.14233 15.2808C4.20279 15.3155 4.31215 15.3561 4.57935 15.3792C4.85313 15.403 5.21366 15.4036 5.75445 15.4036H14.247C14.7877 15.4036 15.1485 15.403 15.4225 15.3792C15.6901 15.3561 15.7996 15.3154 15.8599 15.2808C16.0477 15.1731 16.1917 15.0031 16.2671 14.8C16.2913 14.7349 16.3134 14.6205 16.2923 14.3533C16.2709 14.0822 16.2132 13.731 16.1258 13.2066L15.3683 9.47305C15.3667 9.46504 15.3652 9.457 15.3639 9.44894C15.2978 9.0524 15.2541 8.79327 15.2056 8.59565C15.1592 8.40658 15.1195 8.32417 15.0856 8.2732C14.9888 8.12764 14.8528 8.01248 14.6935 7.94099C14.6376 7.91594 14.5499 7.89035 14.3559 7.87567C14.1531 7.86032 13.8904 7.85986 13.4883 7.85986H6.51352C6.11147 7.85986 5.8487 7.86032 5.64579 7.87567Z"/>
</svg>
