<svg width="20" height="20" viewBox="0 0 20 20" xmlns="http://www.w3.org/2000/svg">
<path fill-rule="evenodd" clip-rule="evenodd" d="M9.32995 4.70078C6.77419 4.70078 4.70078 6.77558 4.70078 9.33689C4.70078 11.8982 6.77419 13.973 9.32995 13.973C10.5853 13.973 11.7243 13.4724 12.5584 12.6595C12.5739 12.6403 12.5906 12.6218 12.6084 12.604C12.6251 12.5873 12.6424 12.5717 12.6603 12.557C13.4643 11.7232 13.9591 10.5881 13.9591 9.33689C13.9591 6.77558 11.8857 4.70078 9.32995 4.70078ZM14.0659 13.0728C14.8758 12.045 15.3591 10.7473 15.3591 9.33689C15.3591 6.0041 12.6606 3.30078 9.32995 3.30078C5.99927 3.30078 3.30078 6.0041 3.30078 9.33689C3.30078 12.6697 5.99927 15.373 9.32995 15.373C10.7468 15.373 12.0493 14.8838 13.0783 14.0651L15.5055 16.4954C15.7787 16.769 16.2219 16.7693 16.4954 16.4961C16.769 16.2229 16.7693 15.7797 16.4961 15.5061L14.0659 13.0728Z"/>
</svg>
