<svg width="20" height="20" viewBox="0 0 20 20" xmlns="http://www.w3.org/2000/svg">
<path fill-rule="evenodd" clip-rule="evenodd" d="M10.3473 4.51323C10.6165 4.23583 11.0597 4.22922 11.3371 4.49849L16.4883 9.49849C16.6241 9.63031 16.7008 9.81151 16.7008 10.0008C16.7008 10.19 16.6241 10.3713 16.4883 10.5031L11.3371 15.5031C11.0597 15.7723 10.6165 15.7657 10.3473 15.4883C10.078 15.2109 10.0846 14.7678 10.362 14.4985L14.2746 10.7008H4.00078C3.61418 10.7008 3.30078 10.3874 3.30078 10.0008C3.30078 9.61418 3.61418 9.30078 4.00078 9.30078H14.2746L10.362 5.50307C10.0846 5.23381 10.078 4.79064 10.3473 4.51323Z"/>
</svg>
