<svg width="16" height="16" viewBox="0 0 16 16" fill="none" xmlns="http://www.w3.org/2000/svg">
<path fill-rule="evenodd" clip-rule="evenodd" d="M12.9958 3.00581C13.1272 3.13722 13.2009 3.3155 13.2008 3.50135L13.1935 12.5014C13.1932 12.8879 12.8795 13.2011 12.4929 13.2008C12.1063 13.2005 11.7932 12.8868 11.7935 12.5002L11.7994 5.19211L3.99576 12.9958C3.72239 13.2691 3.27917 13.2691 3.00581 12.9958C2.73244 12.7224 2.73244 12.2792 3.00581 12.0058L10.8095 4.20216L3.50135 4.20809C3.11475 4.20841 2.8011 3.89526 2.80078 3.50866C2.80047 3.12206 3.11361 2.80841 3.50021 2.80809L12.5002 2.80078C12.6861 2.80063 12.8643 2.87439 12.9958 3.00581Z" fill="currentColor"/>
</svg>
