<svg width="28" height="28" viewBox="0 0 28 28" fill="none" xmlns="http://www.w3.org/2000/svg">
<path fill-rule="evenodd" clip-rule="evenodd" d="M3.69505 19.837L2 26L8.33509 24.346C10.0804 25.294 12.0507 25.793 14.0502 25.794C20.6365 25.794 25.997 20.459 26 13.902C26.001 10.724 24.7591 7.736 22.5034 5.488C20.2467 3.24 17.2464 2.001 14.0502 2C7.46395 2 2.10349 7.335 2.10048 13.891C2.09947 15.988 2.64908 18.033 3.69505 19.837ZM14.0462 23.785C11.9201 23.784 10.3125 23.188 8.62848 22.193L4.86863 23.174L5.87239 19.526C4.77217 17.783 4.11706 16.117 4.11806 13.892C4.12007 8.442 8.57624 4.008 14.0543 4.008C19.5463 4.01 23.9844 8.438 23.9824 13.9C23.9794 19.351 19.5202 23.785 14.0462 23.785Z" fill="#414663" fill-opacity="0.8" style="fill:#414663;fill:color(display-p3 0.2549 0.2745 0.3882);fill-opacity:0.8;"/>
<path d="M20.0698 16.729C19.9955 16.605 19.7965 16.531 19.4971 16.382C19.1987 16.233 17.7307 15.514 17.4564 15.415C17.1831 15.316 16.9842 15.266 16.7842 15.564C16.5853 15.861 16.0126 16.531 15.8387 16.729C15.6649 16.927 15.4901 16.952 15.1917 16.803C14.8932 16.654 13.9307 16.341 12.7903 15.328C11.903 14.54 11.3032 13.567 11.1294 13.269C10.9555 12.972 11.1113 12.811 11.26 12.663C11.3946 12.53 11.5584 12.316 11.7081 12.142C11.8598 11.97 11.9091 11.846 12.0095 11.647C12.109 11.449 12.0598 11.275 11.9844 11.126C11.9091 10.978 11.3122 9.515 11.0641 8.92C10.8209 8.341 10.5747 8.419 10.3919 8.41L9.81914 8.4C9.6202 8.4 9.29666 8.474 9.02336 8.772C8.75006 9.07 7.9784 9.788 7.9784 11.251C7.9784 12.7029 9.0323 14.1055 9.19364 14.3203L9.19719 14.325C9.3469 14.523 11.3022 17.525 14.2974 18.812C15.0098 19.118 15.5664 19.301 15.9995 19.438C16.7149 19.664 17.366 19.632 17.8804 19.556C18.4542 19.471 19.6468 18.837 19.896 18.143C20.1452 17.448 20.1452 16.853 20.0698 16.729Z" fill="#414663" fill-opacity="0.8" style="fill:#414663;fill:color(display-p3 0.2549 0.2745 0.3882);fill-opacity:0.8;"/>
</svg>
