<svg width="24" height="24" viewBox="0 0 24 24" fill="none" xmlns="http://www.w3.org/2000/svg">
<path d="M18.495 6.49497C18.7683 6.22161 18.7683 5.77839 18.495 5.50503C18.2216 5.23166 17.7784 5.23166 17.505 5.50503L18.495 6.49497ZM5.50503 17.505C5.23166 17.7784 5.23166 18.2216 5.50503 18.495C5.77839 18.7683 6.22161 18.7683 6.49497 18.495L5.50503 17.505ZM6.49497 5.50503C6.22161 5.23166 5.77839 5.23166 5.50503 5.50503C5.23166 5.77839 5.23166 6.22161 5.50503 6.49497L6.49497 5.50503ZM17.505 18.495C17.7784 18.7683 18.2216 18.7683 18.495 18.495C18.7683 18.2216 18.7683 17.7784 18.495 17.505L17.505 18.495ZM17.505 5.50503L11.505 11.505L12.495 12.495L18.495 6.49497L17.505 5.50503ZM11.505 11.505L5.50503 17.505L6.49497 18.495L12.495 12.495L11.505 11.505ZM5.50503 6.49497L11.505 12.495L12.495 11.505L6.49497 5.50503L5.50503 6.49497ZM11.505 12.495L17.505 18.495L18.495 17.505L12.495 11.505L11.505 12.495Z" fill="#414663" fill-opacity="0.8" style="fill:#414663;fill:color(display-p3 0.2549 0.2745 0.3882);fill-opacity:0.8;"/>
</svg>
