<svg width="24" height="24" viewBox="0 0 24 24" fill="none" xmlns="http://www.w3.org/2000/svg">
<path fill-rule="evenodd" clip-rule="evenodd" d="M3.29972 12C3.29972 11.6134 3.61312 11.3 3.99972 11.3L11.3006 11.3L11.3006 3.99909C11.3006 3.6125 11.614 3.29909 12.0006 3.29909C12.3872 3.29909 12.7006 3.61249 12.7006 3.99909L12.7006 11.3L20.0015 11.3C20.3881 11.3 20.7015 11.6134 20.7015 12C20.7015 12.3866 20.3881 12.7 20.0015 12.7L12.7006 12.7L12.7006 20.0009C12.7006 20.3875 12.3872 20.7009 12.0006 20.7009C11.614 20.7009 11.3006 20.3875 11.3006 20.0009L11.3006 12.7L3.99972 12.7C3.61312 12.7 3.29972 12.3866 3.29972 12Z" fill="#414663" style="fill:#414663;fill:color(display-p3 0.2549 0.2745 0.3882);fill-opacity:1;"/>
</svg>
