<svg width="28" height="28" viewBox="0 0 28 28" fill="none" xmlns="http://www.w3.org/2000/svg">
<path d="M7.43189 13.8733C10.9301 12.3492 13.2628 11.3444 14.43 10.8589C17.7626 9.47282 18.455 9.23204 18.9064 9.22408C19.0056 9.22234 19.2276 9.24694 19.3714 9.3636C19.4928 9.46211 19.5262 9.59518 19.5422 9.68857C19.5581 9.78197 19.578 9.99473 19.5622 10.161C19.3816 12.0585 18.6002 16.6632 18.2027 18.7884C18.0345 19.6876 17.7032 19.9891 17.3826 20.0186C16.8307 20.0694 16.3841 19.751 15.8869 19.3965C15.7562 19.3034 15.6221 19.2078 15.4816 19.1157C14.9303 18.7543 14.5042 18.4641 14.0769 18.1731C13.6858 17.9067 13.2936 17.6397 12.8036 17.3168C11.7839 16.6448 12.2108 16.2333 12.78 15.6846C12.8721 15.5958 12.968 15.5034 13.0621 15.4056C13.1041 15.362 13.3095 15.171 13.5991 14.9018C14.5281 14.0381 16.3233 12.3691 16.3686 12.176C16.376 12.1443 16.3829 12.0262 16.3128 11.9639C16.2426 11.9015 16.139 11.9228 16.0643 11.9398C15.9584 11.9638 14.2712 13.079 11.0026 15.2853C10.5237 15.6142 10.0899 15.7744 9.70129 15.766C9.27283 15.7568 8.44864 15.5238 7.83594 15.3246C7.74596 15.2954 7.65819 15.2678 7.57348 15.2411C6.95071 15.0453 6.49339 14.9015 6.53917 14.5363C6.56626 14.3202 6.86383 14.0992 7.43189 13.8733Z" fill="#414663" fill-opacity="0.8" style="fill:#414663;fill:color(display-p3 0.2549 0.2745 0.3882);fill-opacity:0.8;"/>
<path d="M25.1 14C25.1 20.1304 20.1304 25.1 14 25.1C7.86964 25.1 2.9 20.1304 2.9 14C2.9 7.86964 7.86964 2.9 14 2.9C20.1304 2.9 25.1 7.86964 25.1 14Z" stroke="#414663" stroke-opacity="0.8" style="stroke:#414663;stroke:color(display-p3 0.2549 0.2745 0.3882);stroke-opacity:0.8;" stroke-width="1.8"/>
</svg>
