<svg xmlns="http://www.w3.org/2000/svg" xmlns:xlink="http://www.w3.org/1999/xlink"><defs><style>
    .sprite-symbol-usage {display: none;}
    .sprite-symbol-usage:target {display: inline;}
  </style><symbol viewBox="0 0 20 20" fill="none" id="icon-arrow-right">
<path d="M16 10L10.8488 5M16 10L10.8488 15M16 10H4" stroke="#414663" style="stroke:#414663;stroke:color(display-p3 0.2549 0.2745 0.3882);stroke-opacity:1;" stroke-width="1.4" stroke-linecap="round" stroke-linejoin="round" />
</symbol><symbol viewBox="0 0 22 22" fill="none" id="icon-arrow-slim-right">
<path d="M8.12891 17.6999L15.7811 11.0042L8.12891 4.30859" stroke="#414663" style="stroke:#414663;stroke:color(display-p3 0.2549 0.2745 0.3882);stroke-opacity:1;" stroke-width="1.4" stroke-linecap="round" stroke-linejoin="round" />
</symbol><symbol viewBox="0 0 16 16" fill="none" id="icon-arrow-top-right">
<path fill-rule="evenodd" clip-rule="evenodd" d="M12.9958 3.00581C13.1272 3.13722 13.2009 3.3155 13.2008 3.50135L13.1935 12.5014C13.1932 12.8879 12.8795 13.2011 12.4929 13.2008C12.1063 13.2005 11.7932 12.8868 11.7935 12.5002L11.7994 5.19211L3.99576 12.9958C3.72239 13.2691 3.27917 13.2691 3.00581 12.9958C2.73244 12.7224 2.73244 12.2792 3.00581 12.0058L10.8095 4.20216L3.50135 4.20809C3.11475 4.20841 2.8011 3.89526 2.80078 3.50866C2.80047 3.12206 3.11361 2.80841 3.50021 2.80809L12.5002 2.80078C12.6861 2.80063 12.8643 2.87439 12.9958 3.00581Z" fill="currentColor" />
</symbol><symbol viewBox="0 0 20 20" fill="none" id="icon-handbag">
<path d="M6.74773 7.15908H6.5127C5.72966 7.15908 5.3383 7.15908 5.02075 7.30153C4.74084 7.42711 4.50237 7.62934 4.33249 7.8848C4.13977 8.17461 4.07498 8.56069 3.94625 9.33308L3.18739 13.0732L3.18708 13.0749C3.01354 14.1161 2.92673 14.637 3.07751 15.0429C3.20989 15.3994 3.46341 15.6981 3.79322 15.8872C4.16904 16.1028 4.69698 16.1028 5.75363 16.1028H14.2461C15.3028 16.1028 15.8316 16.1028 16.2074 15.8872C16.5372 15.6981 16.7901 15.3994 16.9225 15.0429C17.0732 14.6372 16.9865 14.1165 16.8131 13.0761L16.8124 13.0732L16.0535 9.33308C15.9248 8.56069 15.8603 8.17461 15.6676 7.8848C15.4977 7.62934 15.2591 7.42711 14.9792 7.30153C14.6616 7.15908 14.2705 7.15908 13.4875 7.15908H13.2523M6.74773 7.15908H13.2523M6.74773 7.15908C6.74773 5.3629 7.15379 3.09375 9.99999 3.09375C12.8462 3.09375 13.2523 5.3629 13.2523 7.15908" stroke="#414663" style="stroke:#414663;stroke:color(display-p3 0.2549 0.2745 0.3882);stroke-opacity:1;" stroke-width="1.4" stroke-linecap="round" stroke-linejoin="round" />
</symbol><symbol viewBox="0 0 100 68" fill="none" id="icon-play">
<rect width="100" height="68" rx="12" fill="white" style="fill:white;fill-opacity:1;" />
<path d="M60 33.9995L40 44L40 24L60 33.9995Z" fill="#414663" style="fill:#414663;fill:color(display-p3 0.2549 0.2745 0.3882);fill-opacity:1;" />
</symbol><symbol viewBox="0 0 24 24" fill="none" id="icon-plus">
<path fill-rule="evenodd" clip-rule="evenodd" d="M3.29972 12C3.29972 11.6134 3.61312 11.3 3.99972 11.3L11.3006 11.3L11.3006 3.99909C11.3006 3.6125 11.614 3.29909 12.0006 3.29909C12.3872 3.29909 12.7006 3.61249 12.7006 3.99909L12.7006 11.3L20.0015 11.3C20.3881 11.3 20.7015 11.6134 20.7015 12C20.7015 12.3866 20.3881 12.7 20.0015 12.7L12.7006 12.7L12.7006 20.0009C12.7006 20.3875 12.3872 20.7009 12.0006 20.7009C11.614 20.7009 11.3006 20.3875 11.3006 20.0009L11.3006 12.7L3.99972 12.7C3.61312 12.7 3.29972 12.3866 3.29972 12Z" fill="#414663" style="fill:#414663;fill:color(display-p3 0.2549 0.2745 0.3882);fill-opacity:1;" />
</symbol><symbol viewBox="0 0 20 20" id="icon-search">
<path fill-rule="evenodd" clip-rule="evenodd" d="M9.32995 4.70078C6.77419 4.70078 4.70078 6.77558 4.70078 9.33689C4.70078 11.8982 6.77419 13.973 9.32995 13.973C10.5853 13.973 11.7243 13.4724 12.5584 12.6595C12.5739 12.6403 12.5906 12.6218 12.6084 12.604C12.6251 12.5873 12.6424 12.5717 12.6603 12.557C13.4643 11.7232 13.9591 10.5881 13.9591 9.33689C13.9591 6.77558 11.8857 4.70078 9.32995 4.70078ZM14.0659 13.0728C14.8758 12.045 15.3591 10.7473 15.3591 9.33689C15.3591 6.0041 12.6606 3.30078 9.32995 3.30078C5.99927 3.30078 3.30078 6.0041 3.30078 9.33689C3.30078 12.6697 5.99927 15.373 9.32995 15.373C10.7468 15.373 12.0493 14.8838 13.0783 14.0651L15.5055 16.4954C15.7787 16.769 16.2219 16.7693 16.4954 16.4961C16.769 16.2229 16.7693 15.7797 16.4961 15.5061L14.0659 13.0728Z" />
</symbol><symbol viewBox="0 0 28 28" fill="none" id="icon-tg">
<path d="M7.43189 13.8733C10.9301 12.3492 13.2628 11.3444 14.43 10.8589C17.7626 9.47282 18.455 9.23204 18.9064 9.22408C19.0056 9.22234 19.2276 9.24694 19.3714 9.3636C19.4928 9.46211 19.5262 9.59518 19.5422 9.68857C19.5581 9.78197 19.578 9.99473 19.5622 10.161C19.3816 12.0585 18.6002 16.6632 18.2027 18.7884C18.0345 19.6876 17.7032 19.9891 17.3826 20.0186C16.8307 20.0694 16.3841 19.751 15.8869 19.3965C15.7562 19.3034 15.6221 19.2078 15.4816 19.1157C14.9303 18.7543 14.5042 18.4641 14.0769 18.1731C13.6858 17.9067 13.2936 17.6397 12.8036 17.3168C11.7839 16.6448 12.2108 16.2333 12.78 15.6846C12.8721 15.5958 12.968 15.5034 13.0621 15.4056C13.1041 15.362 13.3095 15.171 13.5991 14.9018C14.5281 14.0381 16.3233 12.3691 16.3686 12.176C16.376 12.1443 16.3829 12.0262 16.3128 11.9639C16.2426 11.9015 16.139 11.9228 16.0643 11.9398C15.9584 11.9638 14.2712 13.079 11.0026 15.2853C10.5237 15.6142 10.0899 15.7744 9.70129 15.766C9.27283 15.7568 8.44864 15.5238 7.83594 15.3246C7.74596 15.2954 7.65819 15.2678 7.57348 15.2411C6.95071 15.0453 6.49339 14.9015 6.53917 14.5363C6.56626 14.3202 6.86383 14.0992 7.43189 13.8733Z" fill="#414663" fill-opacity="0.8" style="fill:#414663;fill:color(display-p3 0.2549 0.2745 0.3882);fill-opacity:0.8;" />
<path d="M25.1 14C25.1 20.1304 20.1304 25.1 14 25.1C7.86964 25.1 2.9 20.1304 2.9 14C2.9 7.86964 7.86964 2.9 14 2.9C20.1304 2.9 25.1 7.86964 25.1 14Z" stroke="#414663" stroke-opacity="0.8" style="stroke:#414663;stroke:color(display-p3 0.2549 0.2745 0.3882);stroke-opacity:0.8;" stroke-width="1.8" />
</symbol><symbol viewBox="0 0 28 28" fill="none" id="icon-vk">
<path d="M14.77 19.2901C9.30003 19.2901 6.18006 15.54 6.05005 9.30005H8.79006C8.88006 13.88 10.9 15.82 12.5 16.22V9.30005H15.0801V13.25C16.6601 13.08 18.3199 11.28 18.8799 9.30005H21.46C21.03 11.7401 19.23 13.54 17.95 14.28C19.23 14.88 21.2801 16.45 22.0601 19.2901H19.22C18.61 17.39 17.0901 15.92 15.0801 15.72V19.2901H14.77Z" fill="#414663" fill-opacity="0.8" style="fill:#414663;fill:color(display-p3 0.2549 0.2745 0.3882);fill-opacity:0.8;" />
<path d="M25.1 14C25.1 20.1304 20.1304 25.1 14 25.1C7.86964 25.1 2.9 20.1304 2.9 14C2.9 7.86964 7.86964 2.9 14 2.9C20.1304 2.9 25.1 7.86964 25.1 14Z" stroke="#414663" stroke-opacity="0.8" style="stroke:#414663;stroke:color(display-p3 0.2549 0.2745 0.3882);stroke-opacity:0.8;" stroke-width="1.8" />
</symbol><symbol viewBox="0 0 28 28" fill="none" id="icon-whatsapp">
<path fill-rule="evenodd" clip-rule="evenodd" d="M3.69505 19.837L2 26L8.33509 24.346C10.0804 25.294 12.0507 25.793 14.0502 25.794C20.6365 25.794 25.997 20.459 26 13.902C26.001 10.724 24.7591 7.736 22.5034 5.488C20.2467 3.24 17.2464 2.001 14.0502 2C7.46395 2 2.10349 7.335 2.10048 13.891C2.09947 15.988 2.64908 18.033 3.69505 19.837ZM14.0462 23.785C11.9201 23.784 10.3125 23.188 8.62848 22.193L4.86863 23.174L5.87239 19.526C4.77217 17.783 4.11706 16.117 4.11806 13.892C4.12007 8.442 8.57624 4.008 14.0543 4.008C19.5463 4.01 23.9844 8.438 23.9824 13.9C23.9794 19.351 19.5202 23.785 14.0462 23.785Z" fill="#414663" fill-opacity="0.8" style="fill:#414663;fill:color(display-p3 0.2549 0.2745 0.3882);fill-opacity:0.8;" />
<path d="M20.0698 16.729C19.9955 16.605 19.7965 16.531 19.4971 16.382C19.1987 16.233 17.7307 15.514 17.4564 15.415C17.1831 15.316 16.9842 15.266 16.7842 15.564C16.5853 15.861 16.0126 16.531 15.8387 16.729C15.6649 16.927 15.4901 16.952 15.1917 16.803C14.8932 16.654 13.9307 16.341 12.7903 15.328C11.903 14.54 11.3032 13.567 11.1294 13.269C10.9555 12.972 11.1113 12.811 11.26 12.663C11.3946 12.53 11.5584 12.316 11.7081 12.142C11.8598 11.97 11.9091 11.846 12.0095 11.647C12.109 11.449 12.0598 11.275 11.9844 11.126C11.9091 10.978 11.3122 9.515 11.0641 8.92C10.8209 8.341 10.5747 8.419 10.3919 8.41L9.81914 8.4C9.6202 8.4 9.29666 8.474 9.02336 8.772C8.75006 9.07 7.9784 9.788 7.9784 11.251C7.9784 12.7029 9.0323 14.1055 9.19364 14.3203L9.19719 14.325C9.3469 14.523 11.3022 17.525 14.2974 18.812C15.0098 19.118 15.5664 19.301 15.9995 19.438C16.7149 19.664 17.366 19.632 17.8804 19.556C18.4542 19.471 19.6468 18.837 19.896 18.143C20.1452 17.448 20.1452 16.853 20.0698 16.729Z" fill="#414663" fill-opacity="0.8" style="fill:#414663;fill:color(display-p3 0.2549 0.2745 0.3882);fill-opacity:0.8;" />
</symbol></defs><use id="icon-arrow-right-usage" xlink:href="#icon-arrow-right" class="sprite-symbol-usage" /><use id="icon-arrow-slim-right-usage" xlink:href="#icon-arrow-slim-right" class="sprite-symbol-usage" /><use id="icon-arrow-top-right-usage" xlink:href="#icon-arrow-top-right" class="sprite-symbol-usage" /><use id="icon-handbag-usage" xlink:href="#icon-handbag" class="sprite-symbol-usage" /><use id="icon-play-usage" xlink:href="#icon-play" class="sprite-symbol-usage" /><use id="icon-plus-usage" xlink:href="#icon-plus" class="sprite-symbol-usage" /><use id="icon-search-usage" xlink:href="#icon-search" class="sprite-symbol-usage" /><use id="icon-tg-usage" xlink:href="#icon-tg" class="sprite-symbol-usage" /><use id="icon-vk-usage" xlink:href="#icon-vk" class="sprite-symbol-usage" /><use id="icon-whatsapp-usage" xlink:href="#icon-whatsapp" class="sprite-symbol-usage" /></svg>