<svg xmlns="http://www.w3.org/2000/svg" xmlns:xlink="http://www.w3.org/1999/xlink"><defs><style>
    .sprite-symbol-usage {display: none;}
    .sprite-symbol-usage:target {display: inline;}
  </style><symbol viewBox="0 0 20 20" fill="none" id="icon-arrow-right">
<path d="M16 10L10.8488 5M16 10L10.8488 15M16 10H4" stroke="#414663" style="stroke:#414663;stroke:color(display-p3 0.2549 0.2745 0.3882);stroke-opacity:1;" stroke-width="1.4" stroke-linecap="round" stroke-linejoin="round" />
</symbol><symbol viewBox="0 0 22 22" fill="none" id="icon-arrow-slim-right">
<path d="M8.12891 17.6999L15.7811 11.0042L8.12891 4.30859" stroke="#414663" style="stroke:#414663;stroke:color(display-p3 0.2549 0.2745 0.3882);stroke-opacity:1;" stroke-width="1.4" stroke-linecap="round" stroke-linejoin="round" />
</symbol><symbol viewBox="0 0 20 20" fill="none" id="icon-arrow-top-right">
<path d="M15 5L5 5.00812M15 5L14.9919 15M15 5L5 15" stroke="#414663" style="stroke:#414663;stroke:color(display-p3 0.2549 0.2745 0.3882);stroke-opacity:1;" stroke-width="1.4" stroke-linecap="round" stroke-linejoin="round" />
</symbol><symbol viewBox="0 0 20 20" fill="none" id="icon-handbag">
<path d="M6.74773 7.15908H6.5127C5.72966 7.15908 5.3383 7.15908 5.02075 7.30153C4.74084 7.42711 4.50237 7.62934 4.33249 7.8848C4.13977 8.17461 4.07498 8.56069 3.94625 9.33308L3.18739 13.0732L3.18708 13.0749C3.01354 14.1161 2.92673 14.637 3.07751 15.0429C3.20989 15.3994 3.46341 15.6981 3.79322 15.8872C4.16904 16.1028 4.69698 16.1028 5.75363 16.1028H14.2461C15.3028 16.1028 15.8316 16.1028 16.2074 15.8872C16.5372 15.6981 16.7901 15.3994 16.9225 15.0429C17.0732 14.6372 16.9865 14.1165 16.8131 13.0761L16.8124 13.0732L16.0535 9.33308C15.9248 8.56069 15.8603 8.17461 15.6676 7.8848C15.4977 7.62934 15.2591 7.42711 14.9792 7.30153C14.6616 7.15908 14.2705 7.15908 13.4875 7.15908H13.2523M6.74773 7.15908H13.2523M6.74773 7.15908C6.74773 5.3629 7.15379 3.09375 9.99999 3.09375C12.8462 3.09375 13.2523 5.3629 13.2523 7.15908" stroke="#414663" style="stroke:#414663;stroke:color(display-p3 0.2549 0.2745 0.3882);stroke-opacity:1;" stroke-width="1.4" stroke-linecap="round" stroke-linejoin="round" />
</symbol><symbol viewBox="0 0 24 24" fill="none" id="icon-search">
<path d="M19.1998 19.1998L15.7225 15.718M17.5898 11.2031C17.5898 14.7396 14.7267 17.6065 11.1948 17.6065C7.66295 17.6065 4.7998 14.7396 4.7998 11.2031C4.7998 7.66668 7.66295 4.7998 11.1948 4.7998C14.7267 4.7998 17.5898 7.66668 17.5898 11.2031Z" stroke="#414663" stroke-opacity="0.6" style="stroke:#414663;stroke:color(display-p3 0.2549 0.2745 0.3882);stroke-opacity:0.6;" stroke-width="1.4" stroke-linecap="round" />
</symbol></defs><use id="icon-arrow-right-usage" xlink:href="#icon-arrow-right" class="sprite-symbol-usage" /><use id="icon-arrow-slim-right-usage" xlink:href="#icon-arrow-slim-right" class="sprite-symbol-usage" /><use id="icon-arrow-top-right-usage" xlink:href="#icon-arrow-top-right" class="sprite-symbol-usage" /><use id="icon-handbag-usage" xlink:href="#icon-handbag" class="sprite-symbol-usage" /><use id="icon-search-usage" xlink:href="#icon-search" class="sprite-symbol-usage" /></svg>