<svg xmlns="http://www.w3.org/2000/svg" xmlns:xlink="http://www.w3.org/1999/xlink"><defs><style>
    .sprite-symbol-usage {display: none;}
    .sprite-symbol-usage:target {display: inline;}
  </style><symbol viewBox="0 0 20 20" id="icon-arrow-right">
<path fill-rule="evenodd" clip-rule="evenodd" d="M10.3473 4.51323C10.6165 4.23583 11.0597 4.22922 11.3371 4.49849L16.4883 9.49849C16.6241 9.63031 16.7008 9.81151 16.7008 10.0008C16.7008 10.19 16.6241 10.3713 16.4883 10.5031L11.3371 15.5031C11.0597 15.7723 10.6165 15.7657 10.3473 15.4883C10.078 15.2109 10.0846 14.7678 10.362 14.4985L14.2746 10.7008H4.00078C3.61418 10.7008 3.30078 10.3874 3.30078 10.0008C3.30078 9.61418 3.61418 9.30078 4.00078 9.30078H14.2746L10.362 5.50307C10.0846 5.23381 10.078 4.79064 10.3473 4.51323Z" />
</symbol><symbol viewBox="0 0 22 22" id="icon-arrow-slim-right">
<path fill-rule="evenodd" clip-rule="evenodd" d="M7.60289 3.84843C7.85747 3.55749 8.2997 3.528 8.59065 3.78258L16.2428 10.4782C16.3947 10.6112 16.4819 10.8032 16.4819 11.005C16.4819 11.2069 16.3947 11.3989 16.2428 11.5318L8.59065 18.2275C8.2997 18.4821 7.85747 18.4526 7.60289 18.1616C7.34832 17.8707 7.3778 17.4285 7.66874 17.1739L14.7189 11.005L7.66874 4.83619C7.3778 4.58161 7.34832 4.13938 7.60289 3.84843Z" />
</symbol><symbol viewBox="0 0 16 16" fill="none" id="icon-arrow-top-right">
<path fill-rule="evenodd" clip-rule="evenodd" d="M12.9958 3.00581C13.1272 3.13722 13.2009 3.3155 13.2008 3.50135L13.1935 12.5014C13.1932 12.8879 12.8795 13.2011 12.4929 13.2008C12.1063 13.2005 11.7932 12.8868 11.7935 12.5002L11.7994 5.19211L3.99576 12.9958C3.72239 13.2691 3.27917 13.2691 3.00581 12.9958C2.73244 12.7224 2.73244 12.2792 3.00581 12.0058L10.8095 4.20216L3.50135 4.20809C3.11475 4.20841 2.8011 3.89526 2.80078 3.50866C2.80047 3.12206 3.11361 2.80841 3.50021 2.80809L12.5002 2.80078C12.6861 2.80063 12.8643 2.87439 12.9958 3.00581Z" fill="currentColor" />
</symbol><symbol viewBox="0 0 24 24" id="icon-cross">
<path d="M18.495 6.49497C18.7683 6.22161 18.7683 5.77839 18.495 5.50503C18.2216 5.23166 17.7784 5.23166 17.505 5.50503L18.495 6.49497ZM5.50503 17.505C5.23166 17.7784 5.23166 18.2216 5.50503 18.495C5.77839 18.7683 6.22161 18.7683 6.49497 18.495L5.50503 17.505ZM6.49497 5.50503C6.22161 5.23166 5.77839 5.23166 5.50503 5.50503C5.23166 5.77839 5.23166 6.22161 5.50503 6.49497L6.49497 5.50503ZM17.505 18.495C17.7784 18.7683 18.2216 18.7683 18.495 18.495C18.7683 18.2216 18.7683 17.7784 18.495 17.505L17.505 18.495ZM17.505 5.50503L11.505 11.505L12.495 12.495L18.495 6.49497L17.505 5.50503ZM11.505 11.505L5.50503 17.505L6.49497 18.495L12.495 12.495L11.505 11.505ZM5.50503 6.49497L11.505 12.495L12.495 11.505L6.49497 5.50503L5.50503 6.49497ZM11.505 12.495L17.505 18.495L18.495 17.505L12.495 11.505L11.505 12.495Z" />
</symbol><symbol viewBox="0 0 20 20" id="icon-handbag">
<path fill-rule="evenodd" clip-rule="evenodd" d="M6.70118 4.10355C7.29473 3.07581 8.35089 2.39453 10.0008 2.39453C11.6507 2.39453 12.7069 3.07581 13.3004 4.10355C13.7219 4.83326 13.8798 5.68723 13.9313 6.46112C14.1275 6.46301 14.3043 6.46776 14.4615 6.47966C14.7382 6.5006 15.0048 6.54623 15.2665 6.66364C15.667 6.8433 16.0084 7.1326 16.2513 7.49797C16.4102 7.73681 16.499 7.99235 16.5652 8.26186C16.6279 8.51736 16.6799 8.82953 16.7409 9.19521L16.7428 9.20669L17.4976 12.9267C17.5001 12.9383 17.5024 12.95 17.5044 12.9618L17.5093 12.9917C17.5918 13.4864 17.6611 13.9019 17.688 14.2432C17.716 14.598 17.7061 14.9468 17.5795 15.2875C17.3902 15.7972 17.0284 16.2245 16.5565 16.4952C16.2411 16.6762 15.8982 16.7433 15.5433 16.774C15.2016 16.8036 14.7798 16.8036 14.2773 16.8036H5.72409C5.22163 16.8036 4.79997 16.8036 4.45852 16.774C4.10363 16.7433 3.76111 16.6761 3.44575 16.4952C2.9744 16.2248 2.61167 15.7978 2.42213 15.2875C2.29557 14.9467 2.28566 14.5978 2.31366 14.2429C2.34061 13.9013 2.40991 13.4856 2.49244 12.9905L2.499 12.9511L2.49937 12.9495L2.50219 12.9348L3.25861 9.20669L3.25976 9.19979C3.32105 8.83198 3.37333 8.51828 3.43644 8.26162C3.50273 7.99203 3.59171 7.73665 3.75043 7.49797C3.99329 7.13276 4.3344 6.84337 4.73506 6.66364C4.9968 6.54622 5.26349 6.50059 5.54019 6.47966C5.69743 6.46777 5.87415 6.46301 6.07034 6.46112C6.12177 5.68723 6.27976 4.83326 6.70118 4.10355ZM7.47439 6.45986H12.5272C12.478 5.84045 12.3514 5.25965 12.0881 4.80371C11.7671 4.24783 11.1971 3.79453 10.0008 3.79453C8.80453 3.79453 8.23456 4.24783 7.91353 4.80371C7.65021 5.25965 7.5236 5.84045 7.47439 6.45986ZM5.64579 7.87567C5.45167 7.89036 5.3639 7.91596 5.30809 7.94099C5.14892 8.0124 5.0131 8.12748 4.9162 8.2732C4.88219 8.32433 4.84242 8.40689 4.79595 8.59589C4.74738 8.79342 4.70361 9.05257 4.63755 9.44894C4.6362 9.457 4.63472 9.46504 4.63309 9.47305L3.87654 13.2018C3.78875 13.7286 3.73078 14.081 3.70933 14.353C3.68823 14.6203 3.71031 14.7348 3.73453 14.8C3.80975 15.0025 3.95406 15.1728 4.14233 15.2808C4.20279 15.3155 4.31215 15.3561 4.57935 15.3792C4.85313 15.403 5.21366 15.4036 5.75445 15.4036H14.247C14.7877 15.4036 15.1485 15.403 15.4225 15.3792C15.6901 15.3561 15.7996 15.3154 15.8599 15.2808C16.0477 15.1731 16.1917 15.0031 16.2671 14.8C16.2913 14.7349 16.3134 14.6205 16.2923 14.3533C16.2709 14.0822 16.2132 13.731 16.1258 13.2066L15.3683 9.47305C15.3667 9.46504 15.3652 9.457 15.3639 9.44894C15.2978 9.0524 15.2541 8.79327 15.2056 8.59565C15.1592 8.40658 15.1195 8.32417 15.0856 8.2732C14.9888 8.12764 14.8528 8.01248 14.6935 7.94099C14.6376 7.91594 14.5499 7.89035 14.3559 7.87567C14.1531 7.86032 13.8904 7.85986 13.4883 7.85986H6.51352C6.11147 7.85986 5.8487 7.86032 5.64579 7.87567Z" />
</symbol><symbol viewBox="0 0 16 16" id="icon-pagination-arrow">
<path d="M10.06 12L11 11.06L7.94667 8L11 4.94L10.06 4L6.06 8L10.06 12Z" />
</symbol><symbol viewBox="0 0 16 16" id="icon-pagination-arrow-double">
<path d="M11.728 12L12.668 11.06L9.61464 8L12.668 4.94L11.728 4L7.72797 8L11.728 12Z" />
<path d="M7.33344 12L8.27344 11.06L5.2201 8L8.27344 4.94L7.33344 4L3.33344 8L7.33344 12Z" />
</symbol><symbol viewBox="0 0 100 68" fill="none" id="icon-play">
<rect width="100" height="68" rx="12" fill="white" style="fill:white;fill-opacity:1;" />
<path d="M60 33.9995L40 44L40 24L60 33.9995Z" fill="#414663" style="fill:#414663;fill:color(display-p3 0.2549 0.2745 0.3882);fill-opacity:1;" />
</symbol><symbol viewBox="0 0 24 24" fill="none" id="icon-plus">
<path fill-rule="evenodd" clip-rule="evenodd" d="M3.29972 12C3.29972 11.6134 3.61312 11.3 3.99972 11.3L11.3006 11.3L11.3006 3.99909C11.3006 3.6125 11.614 3.29909 12.0006 3.29909C12.3872 3.29909 12.7006 3.61249 12.7006 3.99909L12.7006 11.3L20.0015 11.3C20.3881 11.3 20.7015 11.6134 20.7015 12C20.7015 12.3866 20.3881 12.7 20.0015 12.7L12.7006 12.7L12.7006 20.0009C12.7006 20.3875 12.3872 20.7009 12.0006 20.7009C11.614 20.7009 11.3006 20.3875 11.3006 20.0009L11.3006 12.7L3.99972 12.7C3.61312 12.7 3.29972 12.3866 3.29972 12Z" fill="#414663" style="fill:#414663;fill:color(display-p3 0.2549 0.2745 0.3882);fill-opacity:1;" />
</symbol><symbol viewBox="0 0 20 20" id="icon-search">
<path fill-rule="evenodd" clip-rule="evenodd" d="M9.32995 4.70078C6.77419 4.70078 4.70078 6.77558 4.70078 9.33689C4.70078 11.8982 6.77419 13.973 9.32995 13.973C10.5853 13.973 11.7243 13.4724 12.5584 12.6595C12.5739 12.6403 12.5906 12.6218 12.6084 12.604C12.6251 12.5873 12.6424 12.5717 12.6603 12.557C13.4643 11.7232 13.9591 10.5881 13.9591 9.33689C13.9591 6.77558 11.8857 4.70078 9.32995 4.70078ZM14.0659 13.0728C14.8758 12.045 15.3591 10.7473 15.3591 9.33689C15.3591 6.0041 12.6606 3.30078 9.32995 3.30078C5.99927 3.30078 3.30078 6.0041 3.30078 9.33689C3.30078 12.6697 5.99927 15.373 9.32995 15.373C10.7468 15.373 12.0493 14.8838 13.0783 14.0651L15.5055 16.4954C15.7787 16.769 16.2219 16.7693 16.4954 16.4961C16.769 16.2229 16.7693 15.7797 16.4961 15.5061L14.0659 13.0728Z" />
</symbol><symbol viewBox="0 0 28 28" fill="none" id="icon-tg">
<path d="M7.43189 13.8733C10.9301 12.3492 13.2628 11.3444 14.43 10.8589C17.7626 9.47282 18.455 9.23204 18.9064 9.22408C19.0056 9.22234 19.2276 9.24694 19.3714 9.3636C19.4928 9.46211 19.5262 9.59518 19.5422 9.68857C19.5581 9.78197 19.578 9.99473 19.5622 10.161C19.3816 12.0585 18.6002 16.6632 18.2027 18.7884C18.0345 19.6876 17.7032 19.9891 17.3826 20.0186C16.8307 20.0694 16.3841 19.751 15.8869 19.3965C15.7562 19.3034 15.6221 19.2078 15.4816 19.1157C14.9303 18.7543 14.5042 18.4641 14.0769 18.1731C13.6858 17.9067 13.2936 17.6397 12.8036 17.3168C11.7839 16.6448 12.2108 16.2333 12.78 15.6846C12.8721 15.5958 12.968 15.5034 13.0621 15.4056C13.1041 15.362 13.3095 15.171 13.5991 14.9018C14.5281 14.0381 16.3233 12.3691 16.3686 12.176C16.376 12.1443 16.3829 12.0262 16.3128 11.9639C16.2426 11.9015 16.139 11.9228 16.0643 11.9398C15.9584 11.9638 14.2712 13.079 11.0026 15.2853C10.5237 15.6142 10.0899 15.7744 9.70129 15.766C9.27283 15.7568 8.44864 15.5238 7.83594 15.3246C7.74596 15.2954 7.65819 15.2678 7.57348 15.2411C6.95071 15.0453 6.49339 14.9015 6.53917 14.5363C6.56626 14.3202 6.86383 14.0992 7.43189 13.8733Z" fill="#414663" fill-opacity="0.8" style="fill:#414663;fill:color(display-p3 0.2549 0.2745 0.3882);fill-opacity:0.8;" />
<path d="M25.1 14C25.1 20.1304 20.1304 25.1 14 25.1C7.86964 25.1 2.9 20.1304 2.9 14C2.9 7.86964 7.86964 2.9 14 2.9C20.1304 2.9 25.1 7.86964 25.1 14Z" stroke="#414663" stroke-opacity="0.8" style="stroke:#414663;stroke:color(display-p3 0.2549 0.2745 0.3882);stroke-opacity:0.8;" stroke-width="1.8" />
</symbol><symbol viewBox="0 0 28 28" fill="none" id="icon-vk">
<path d="M14.77 19.2901C9.30003 19.2901 6.18006 15.54 6.05005 9.30005H8.79006C8.88006 13.88 10.9 15.82 12.5 16.22V9.30005H15.0801V13.25C16.6601 13.08 18.3199 11.28 18.8799 9.30005H21.46C21.03 11.7401 19.23 13.54 17.95 14.28C19.23 14.88 21.2801 16.45 22.0601 19.2901H19.22C18.61 17.39 17.0901 15.92 15.0801 15.72V19.2901H14.77Z" fill="#414663" fill-opacity="0.8" style="fill:#414663;fill:color(display-p3 0.2549 0.2745 0.3882);fill-opacity:0.8;" />
<path d="M25.1 14C25.1 20.1304 20.1304 25.1 14 25.1C7.86964 25.1 2.9 20.1304 2.9 14C2.9 7.86964 7.86964 2.9 14 2.9C20.1304 2.9 25.1 7.86964 25.1 14Z" stroke="#414663" stroke-opacity="0.8" style="stroke:#414663;stroke:color(display-p3 0.2549 0.2745 0.3882);stroke-opacity:0.8;" stroke-width="1.8" />
</symbol><symbol viewBox="0 0 28 28" fill="none" id="icon-whatsapp">
<path fill-rule="evenodd" clip-rule="evenodd" d="M3.69505 19.837L2 26L8.33509 24.346C10.0804 25.294 12.0507 25.793 14.0502 25.794C20.6365 25.794 25.997 20.459 26 13.902C26.001 10.724 24.7591 7.736 22.5034 5.488C20.2467 3.24 17.2464 2.001 14.0502 2C7.46395 2 2.10349 7.335 2.10048 13.891C2.09947 15.988 2.64908 18.033 3.69505 19.837ZM14.0462 23.785C11.9201 23.784 10.3125 23.188 8.62848 22.193L4.86863 23.174L5.87239 19.526C4.77217 17.783 4.11706 16.117 4.11806 13.892C4.12007 8.442 8.57624 4.008 14.0543 4.008C19.5463 4.01 23.9844 8.438 23.9824 13.9C23.9794 19.351 19.5202 23.785 14.0462 23.785Z" fill="#414663" fill-opacity="0.8" style="fill:#414663;fill:color(display-p3 0.2549 0.2745 0.3882);fill-opacity:0.8;" />
<path d="M20.0698 16.729C19.9955 16.605 19.7965 16.531 19.4971 16.382C19.1987 16.233 17.7307 15.514 17.4564 15.415C17.1831 15.316 16.9842 15.266 16.7842 15.564C16.5853 15.861 16.0126 16.531 15.8387 16.729C15.6649 16.927 15.4901 16.952 15.1917 16.803C14.8932 16.654 13.9307 16.341 12.7903 15.328C11.903 14.54 11.3032 13.567 11.1294 13.269C10.9555 12.972 11.1113 12.811 11.26 12.663C11.3946 12.53 11.5584 12.316 11.7081 12.142C11.8598 11.97 11.9091 11.846 12.0095 11.647C12.109 11.449 12.0598 11.275 11.9844 11.126C11.9091 10.978 11.3122 9.515 11.0641 8.92C10.8209 8.341 10.5747 8.419 10.3919 8.41L9.81914 8.4C9.6202 8.4 9.29666 8.474 9.02336 8.772C8.75006 9.07 7.9784 9.788 7.9784 11.251C7.9784 12.7029 9.0323 14.1055 9.19364 14.3203L9.19719 14.325C9.3469 14.523 11.3022 17.525 14.2974 18.812C15.0098 19.118 15.5664 19.301 15.9995 19.438C16.7149 19.664 17.366 19.632 17.8804 19.556C18.4542 19.471 19.6468 18.837 19.896 18.143C20.1452 17.448 20.1452 16.853 20.0698 16.729Z" fill="#414663" fill-opacity="0.8" style="fill:#414663;fill:color(display-p3 0.2549 0.2745 0.3882);fill-opacity:0.8;" />
</symbol></defs><use id="icon-arrow-right-usage" xlink:href="#icon-arrow-right" class="sprite-symbol-usage" /><use id="icon-arrow-slim-right-usage" xlink:href="#icon-arrow-slim-right" class="sprite-symbol-usage" /><use id="icon-arrow-top-right-usage" xlink:href="#icon-arrow-top-right" class="sprite-symbol-usage" /><use id="icon-cross-usage" xlink:href="#icon-cross" class="sprite-symbol-usage" /><use id="icon-handbag-usage" xlink:href="#icon-handbag" class="sprite-symbol-usage" /><use id="icon-pagination-arrow-usage" xlink:href="#icon-pagination-arrow" class="sprite-symbol-usage" /><use id="icon-pagination-arrow-double-usage" xlink:href="#icon-pagination-arrow-double" class="sprite-symbol-usage" /><use id="icon-play-usage" xlink:href="#icon-play" class="sprite-symbol-usage" /><use id="icon-plus-usage" xlink:href="#icon-plus" class="sprite-symbol-usage" /><use id="icon-search-usage" xlink:href="#icon-search" class="sprite-symbol-usage" /><use id="icon-tg-usage" xlink:href="#icon-tg" class="sprite-symbol-usage" /><use id="icon-vk-usage" xlink:href="#icon-vk" class="sprite-symbol-usage" /><use id="icon-whatsapp-usage" xlink:href="#icon-whatsapp" class="sprite-symbol-usage" /></svg>